# xmcd
#
# Track frame offsets: 
#        150
#        17432
#        37960
#        57400
#        75740
#        99985
#        123722
#        145292
#        165720
#        183652
#        202281
#        223624
#        243379
#        264415
#        285897
#
# Disc length: 4093 seconds
#
# Revision: 0
# Processed by: cddbd v1.4PL0 Copyright (c) Steve Scherf et al.
# Submitted via: ExactAudioCopy v0.95a3
#
DISCID=d70ffb0f
DTITLE=柯以敏 - 想你想疯了
DYEAR=1999
DGENRE=Pop
TTITLE0=想你想疯了
TTITLE1=爱你胜过我自己
TTITLE2=说你快乐
TTITLE3=委屈
TTITLE4=心痛的感觉
TTITLE5=抽屉里的情书
TTITLE6=过了今夜
TTITLE7=大电话
TTITLE8=想念你
TTITLE9=恋天
TTITLE10=我用生命爱你
TTITLE11=爱我
TTITLE12=邻居的耳朵
TTITLE13=河流
TTITLE14=拥抱我
EXTD=
EXTT0=
EXTT1=
EXTT2=
EXTT3=
EXTT4=
EXTT5=
EXTT6=
EXTT7=
EXTT8=
EXTT9=
EXTT10=
EXTT11=
EXTT12=
EXTT13=
EXTT14=
PLAYORDER=
